<svg width="158" height="17" viewBox="0 0 158 17" fill="none" xmlns="http://www.w3.org/2000/svg">
<path fill-rule="evenodd" clip-rule="evenodd" d="M4.8 9.12C4.624 8.864 4.384 8.484 4.08 7.98C3.776 7.476 3.576 7.144 3.48 6.984L3.384 7.056V16.704H0V0.24H3.144L8.328 7.872L9.048 9C9.304 9.448 9.504 9.776 9.648 9.984L9.72 9.912V0.24H13.104V16.704H9.96L4.8 9.12ZM30.696 9.648C30.696 11.152 30.368 12.456 29.712 13.56C29.056 14.664 28.172 15.504 27.06 16.08C25.948 16.656 24.712 16.944 23.352 16.944C21.992 16.944 20.756 16.656 19.644 16.08C18.532 15.504 17.648 14.664 16.992 13.56C16.336 12.456 16.008 11.152 16.008 9.648V7.296C16.008 5.79199 16.336 4.48801 16.992 3.384C17.648 2.27999 18.532 1.44 19.644 0.864C20.756 0.287997 21.992 0 23.352 0C24.712 0 25.948 0.287997 27.06 0.864C28.172 1.44 29.056 2.27999 29.712 3.384C30.368 4.48801 30.696 5.79199 30.696 7.296V9.648ZM26.808 6.768C26.808 5.55199 26.488 4.612 25.848 3.948C25.208 3.284 24.376 2.952 23.352 2.952C22.328 2.952 21.496 3.284 20.856 3.948C20.216 4.612 19.896 5.55199 19.896 6.768V10.176C19.896 11.392 20.216 12.332 20.856 12.996C21.496 13.66 22.328 13.992 23.352 13.992C24.376 13.992 25.208 13.66 25.848 12.996C26.488 12.332 26.808 11.392 26.808 10.176V6.768ZM33.576 0.24H41.16V3.192H39.24V13.752H41.16V16.704H33.576V13.752H35.52V3.192H33.576V0.24ZM47.952 10.176C47.952 11.392 48.28 12.332 48.936 12.996C49.592 13.66 50.424 13.992 51.432 13.992C52.568 13.992 53.408 13.684 53.952 13.068C54.496 12.452 54.768 11.504 54.768 10.224H58.152C58.152 11.632 57.868 12.844 57.3 13.86C56.732 14.876 55.952 15.644 54.96 16.164C53.968 16.684 52.848 16.944 51.6 16.944H51.264C49.888 16.944 48.656 16.664 47.568 16.104C46.48 15.544 45.624 14.716 45 13.62C44.376 12.524 44.064 11.2 44.064 9.648V7.296C44.064 5.79199 44.376 4.48801 45 3.384C45.624 2.27999 46.476 1.44 47.556 0.864C48.636 0.287997 49.84 0 51.168 0H51.504C52.784 0 53.924 0.251998 54.924 0.756C55.924 1.26 56.712 2.02 57.288 3.036C57.864 4.05201 58.152 5.29599 58.152 6.768H54.624C54.624 5.51999 54.348 4.572 53.796 3.924C53.244 3.276 52.448 2.952 51.408 2.952C50.4 2.952 49.572 3.284 48.924 3.948C48.276 4.612 47.952 5.55199 47.952 6.768V10.176ZM61.032 16.704V0.24H72.624L72.216 3.192H64.68V6.792H71.712V9.744H64.68V13.752H72.288L72.696 16.704H61.032ZM75.384 16.704V0.24H79.104V13.632H85.872L86.28 16.704H75.384ZM97.776 13.464H91.224L90.072 16.704H86.496L92.472 0.24H96.888L102.864 16.704H98.976L97.776 13.464ZM92.232 10.656H96.792C96.184 8.84799 95.448 6.69601 94.584 4.2H94.464L92.232 10.656ZM109.44 9.12C109.264 8.864 109.024 8.484 108.72 7.98C108.416 7.476 108.216 7.144 108.12 6.984L108.024 7.056V16.704H104.64V0.24H107.784L112.968 7.872L113.688 9C113.944 9.448 114.144 9.776 114.288 9.984L114.36 9.912V0.24H117.744V16.704H114.6L109.44 9.12ZM127.464 0.24C128.824 0.24 130.06 0.527997 131.172 1.104C132.284 1.68 133.168 2.51999 133.824 3.624C134.48 4.728 134.808 6.03199 134.808 7.536V9.408C134.808 10.912 134.48 12.216 133.824 13.32C133.168 14.424 132.284 15.264 131.172 15.84C130.06 16.416 128.824 16.704 127.464 16.704H121.224V0.24H127.464ZM124.944 13.752H127.464C128.488 13.752 129.32 13.42 129.96 12.756C130.6 12.092 130.92 11.152 130.92 9.936V7.008C130.92 5.79199 130.6 4.852 129.96 4.188C129.32 3.524 128.488 3.192 127.464 3.192H124.944V13.752Z" fill="black"/>
<path d="M154.039 2.941C153.837 2.941 153.64 3.00082 153.472 3.1129C153.305 3.22498 153.174 3.38428 153.097 3.57066C153.019 3.75704 152.999 3.96213 153.039 4.15999C153.078 4.35785 153.175 4.5396 153.318 4.68225C153.46 4.8249 153.642 4.92204 153.84 4.9614C154.038 5.00076 154.243 4.98056 154.429 4.90336C154.616 4.82616 154.775 4.69542 154.887 4.52768C154.999 4.35994 155.059 4.16274 155.059 3.961C155.059 3.69048 154.952 3.43104 154.76 3.23975C154.569 3.04846 154.31 2.941 154.039 2.941ZM157.949 4.998C157.932 4.29275 157.8 3.59499 157.558 2.9325C157.342 2.36566 157.005 1.85239 156.572 1.428C156.151 0.992312 155.637 0.65805 155.067 0.4505C154.407 0.200737 153.708 0.0656285 153.002 0.051C152.101 -4.74975e-08 151.812 0 149.5 0C147.188 0 146.899 -4.74975e-08 145.998 0.051C145.292 0.0656285 144.593 0.200737 143.932 0.4505C143.364 0.660151 142.85 0.994126 142.428 1.428C141.992 1.8489 141.658 2.36337 141.45 2.9325C141.201 3.59324 141.066 4.29178 141.051 4.998C141 5.899 141 6.188 141 8.5C141 10.812 141 11.101 141.051 12.002C141.066 12.7082 141.201 13.4068 141.45 14.0675C141.658 14.6366 141.992 15.1511 142.428 15.572C142.85 16.0059 143.364 16.3398 143.932 16.5495C144.593 16.7993 145.292 16.9344 145.998 16.949C146.899 17 147.188 17 149.5 17C151.812 17 152.101 17 153.002 16.949C153.708 16.9344 154.407 16.7993 155.067 16.5495C155.637 16.3419 156.151 16.0077 156.572 15.572C157.007 15.1492 157.344 14.6355 157.558 14.0675C157.8 13.405 157.932 12.7072 157.949 12.002C157.949 11.101 158 10.812 158 8.5C158 6.188 158 5.899 157.949 4.998ZM156.419 11.9C156.413 12.4396 156.315 12.9741 156.13 13.481C155.994 13.8509 155.776 14.1852 155.492 14.4585C155.217 14.7394 154.883 14.957 154.515 15.096C154.008 15.2811 153.474 15.3788 152.934 15.385C152.084 15.4275 151.77 15.436 149.534 15.436C147.299 15.436 146.984 15.436 146.134 15.385C145.574 15.3955 145.016 15.3092 144.485 15.13C144.133 14.9839 143.815 14.7669 143.55 14.4925C143.268 14.2194 143.053 13.8849 142.921 13.515C142.713 13.0009 142.598 12.4542 142.581 11.9C142.581 11.05 142.53 10.7355 142.53 8.5C142.53 6.2645 142.53 5.95 142.581 5.1C142.585 4.5484 142.686 4.00175 142.879 3.485C143.028 3.12622 143.258 2.80641 143.55 2.55C143.808 2.25774 144.127 2.02563 144.485 1.87C145.003 1.68304 145.549 1.58532 146.1 1.581C146.95 1.581 147.265 1.53 149.5 1.53C151.736 1.53 152.05 1.53 152.9 1.581C153.44 1.58719 153.974 1.68491 154.481 1.87C154.867 2.01335 155.214 2.24642 155.492 2.55C155.771 2.8111 155.989 3.13032 156.13 3.485C156.319 4.00259 156.417 4.54901 156.419 5.1C156.461 5.95 156.47 6.2645 156.47 8.5C156.47 10.7355 156.461 11.05 156.419 11.9ZM149.5 4.1395C148.638 4.14118 147.796 4.39835 147.08 4.87851C146.364 5.35866 145.806 6.04027 145.477 6.83719C145.149 7.63411 145.064 8.5106 145.233 9.35589C145.402 10.2012 145.818 10.9774 146.428 11.5863C147.038 12.1953 147.815 12.6098 148.661 12.7773C149.507 12.9449 150.383 12.858 151.179 12.5278C151.975 12.1975 152.656 11.6386 153.135 10.9217C153.613 10.2048 153.869 9.36206 153.869 8.5C153.87 7.92634 153.758 7.35812 153.539 6.82801C153.319 6.29791 152.997 5.81639 152.591 5.41114C152.185 5.0059 151.703 4.68493 151.173 4.46669C150.642 4.24845 150.074 4.13726 149.5 4.1395ZM149.5 11.3305C148.94 11.3305 148.393 11.1645 147.927 10.8535C147.462 10.5425 147.099 10.1004 146.885 9.58319C146.671 9.06598 146.615 8.49686 146.724 7.9478C146.833 7.39873 147.103 6.89439 147.499 6.49853C147.894 6.10268 148.399 5.8331 148.948 5.72389C149.497 5.61467 150.066 5.67073 150.583 5.88496C151.1 6.09919 151.542 6.46199 151.853 6.92746C152.164 7.39293 152.331 7.94018 152.331 8.5C152.331 8.87171 152.257 9.23977 152.115 9.58319C151.973 9.9266 151.764 10.2386 151.501 10.5015C151.239 10.7643 150.927 10.9728 150.583 11.115C150.24 11.2573 149.872 11.3305 149.5 11.3305Z" fill="black"/>
</svg>
