<svg width="19" height="18" viewBox="0 0 19 18" fill="none" xmlns="http://www.w3.org/2000/svg">
<g id="Frame">
<path id="Vector" d="M6.77083 16.3333C7.50721 16.3333 8.10417 15.7364 8.10417 15C8.10417 14.2636 7.50721 13.6667 6.77083 13.6667C6.03445 13.6667 5.4375 14.2636 5.4375 15C5.4375 15.7364 6.03445 16.3333 6.77083 16.3333Z" stroke="white" stroke-width="1.8" stroke-linecap="round" stroke-linejoin="round"/>
<path id="Vector_2" d="M14.7708 16.3333C15.5072 16.3333 16.1042 15.7364 16.1042 15C16.1042 14.2636 15.5072 13.6667 14.7708 13.6667C14.0345 13.6667 13.4375 14.2636 13.4375 15C13.4375 15.7364 14.0345 16.3333 14.7708 16.3333Z" stroke="white" stroke-width="1.8" stroke-linecap="round" stroke-linejoin="round"/>
<path id="Vector_3" d="M5.21752 5.00002H16.7709L15.6509 10.5933C15.5899 10.9003 15.4229 11.176 15.1792 11.3722C14.9354 11.5684 14.6304 11.6727 14.3175 11.6667H7.27085C6.94531 11.6694 6.63 11.553 6.38439 11.3393C6.13878 11.1256 5.97983 10.8295 5.93752 10.5067L4.92419 2.82669C4.88216 2.50618 4.72514 2.21185 4.48232 1.99847C4.23951 1.78508 3.92744 1.66718 3.60419 1.66669H2.10419" stroke="white" stroke-width="1.8" stroke-linecap="round" stroke-linejoin="round"/>
</g>
</svg>
