<svg width="24" height="24" viewBox="0 0 24 24" fill="none" xmlns="http://www.w3.org/2000/svg">
<g id="Iconsax/Linear/shoppingcart">
<path id="Vector" d="M2.00012 2H3.74012C4.82012 2 5.67012 2.93 5.58012 4L4.75012 13.96C4.71771 14.3459 4.76581 14.7342 4.89136 15.1005C5.01691 15.4669 5.21717 15.8031 5.47946 16.0879C5.74175 16.3728 6.06035 16.6001 6.41507 16.7553C6.7698 16.9106 7.1529 16.9905 7.54012 16.99H18.1901C19.6301 16.99 20.8901 15.81 21.0001 14.38L21.5401 6.88C21.6601 5.22 20.4001 3.87 18.7301 3.87H5.82012M9.00012 8H21.0001M16.2501 22C16.5816 22 16.8996 21.8683 17.134 21.6339C17.3684 21.3995 17.5001 21.0815 17.5001 20.75C17.5001 20.4185 17.3684 20.1005 17.134 19.8661C16.8996 19.6317 16.5816 19.5 16.2501 19.5C15.9186 19.5 15.6007 19.6317 15.3662 19.8661C15.1318 20.1005 15.0001 20.4185 15.0001 20.75C15.0001 21.0815 15.1318 21.3995 15.3662 21.6339C15.6007 21.8683 15.9186 22 16.2501 22ZM8.25012 22C8.58164 22 8.89959 21.8683 9.13401 21.6339C9.36843 21.3995 9.50012 21.0815 9.50012 20.75C9.50012 20.4185 9.36843 20.1005 9.13401 19.8661C8.89959 19.6317 8.58164 19.5 8.25012 19.5C7.9186 19.5 7.60066 19.6317 7.36624 19.8661C7.13182 20.1005 7.00012 20.4185 7.00012 20.75C7.00012 21.0815 7.13182 21.3995 7.36624 21.6339C7.60066 21.8683 7.9186 22 8.25012 22Z" stroke="black" stroke-width="1.5" stroke-miterlimit="10" stroke-linecap="round" stroke-linejoin="round"/>
</g>
</svg>
